<svg xmlns="http://www.w3.org/2000/svg" xmlns:xlink="http://www.w3.org/1999/xlink" width="500" zoomAndPan="magnify" viewBox="0 0 375 374.999991" height="500" preserveAspectRatio="xMidYMid meet" version="1.0"><defs><g/><clipPath id="f7be6ad1c4"><path d="M 57.074219 24.25 L 319.574219 24.25 L 319.574219 286.75 L 57.074219 286.75 Z M 57.074219 24.25 " clip-rule="nonzero"/></clipPath></defs><g clip-path="url(#f7be6ad1c4)"><path stroke-linecap="butt" transform="matrix(0.75, 0, 0, 0.75, 57.075001, 24.250029)" fill="none" stroke-linejoin="miter" d="M -0.00104267 -0.0000386234 L 349.99898 -0.0000386234 L 349.99898 349.999984 L -0.00104267 349.999984 Z M -0.00104267 -0.0000386234 " stroke="#ffffff" stroke-width="30" stroke-opacity="1" stroke-miterlimit="4"/></g><g fill="#ffffff" fill-opacity="1"><g transform="translate(104.422638, 142.75002)"><g><path d="M 40.796875 -70 C 44.535156 -70 48.035156 -69.863281 51.296875 -69.59375 C 54.566406 -69.332031 57.582031 -68.5 60.34375 -67.09375 C 63.113281 -65.695312 65.566406 -63.300781 67.703125 -59.90625 C 69.703125 -56.90625 70.929688 -53.453125 71.390625 -49.546875 C 71.859375 -45.648438 71.507812 -41.832031 70.34375 -38.09375 C 69.175781 -34.363281 67.0625 -31.195312 64 -28.59375 L 38.90625 -28.59375 L 38.90625 -28.796875 C 40.96875 -29.734375 42.316406 -31.015625 42.953125 -32.640625 C 43.585938 -34.273438 43.65625 -35.925781 43.15625 -37.59375 C 42.65625 -39.257812 41.785156 -40.675781 40.546875 -41.84375 C 39.316406 -43.007812 37.832031 -43.59375 36.09375 -43.59375 L 1.09375 -43.59375 L 1.09375 -70 Z M 32.296875 -41.90625 C 30.160156 -41.101562 28.757812 -39.816406 28.09375 -38.046875 C 27.425781 -36.285156 27.226562 -34.601562 27.5 -33 C 27.832031 -31.394531 28.613281 -29.992188 29.84375 -28.796875 C 31.082031 -27.597656 33.203125 -27 36.203125 -27 L 71.09375 -27 L 71.09375 0 L 0.90625 0 L 0.90625 -5.203125 L 18.703125 -41.90625 Z M 32.296875 -41.90625 "/></g></g></g><g fill="#ffffff" fill-opacity="1"><g transform="translate(189.119806, 142.75002)"><g><path d="M 46.203125 -42.203125 L 47.703125 -42.203125 L 42.40625 -51.5 L 53 -70 L 83.40625 -70 L 54.5 -22.5 L 54.5 0 L 28.5 0 L 28.5 -22.296875 L -0.5 -70 L 30 -70 Z M 46.203125 -42.203125 "/></g></g></g><g fill="#ffffff" fill-opacity="1"><g transform="translate(105.477325, 237.250014)"><g><path d="M 1.09375 -70 L 27.09375 -70 L 27.09375 -25.296875 L 52.703125 -25.296875 L 52.703125 0 L 1.09375 0 Z M 1.09375 -70 "/></g></g></g><g fill="#ffffff" fill-opacity="1"><g transform="translate(171.575214, 237.250014)"><g><path d="M 1 0 L 1 -70 L 27 -70 L 27 0 Z M 1 0 "/></g></g></g><g fill="#ffffff" fill-opacity="1"><g transform="translate(212.07409, 237.250014)"><g><path d="M 16.59375 -45 L 1 -45 L 1 -70 L 58.09375 -70 L 58.09375 -45 L 42.5 -45 L 42.5 0 L 16.59375 0 Z M 16.59375 -45 "/></g></g></g></svg>