<svg width="900" height="200" viewBox="0 0 900 200" xmlns="http://www.w3.org/2000/svg">
  <defs>
    <linearGradient id="bg" x1="0%" y1="0%" x2="100%" y2="100%">
      <stop offset="0%" style="stop-color:#0d1117"/>
      <stop offset="100%" style="stop-color:#161b22"/>
    </linearGradient>
  </defs>

  <!-- Background -->
  <rect width="900" height="200" fill="url(#bg)" rx="7"/>
  <!-- Border -->
  <rect width="900" height="200" fill="none" stroke="#30363d" stroke-width="1.5" rx="7"/>
  <!-- Divider left panel -->
  <line x1="300" y1="20" x2="300" y2="180" stroke="#30363d" stroke-width="0.8" opacity="0.8"/>

  <!-- ── LEFT PANEL ── -->

  <!-- Roles -->
  <text x="26" y="42" font-family="'Courier New', monospace" font-size="13" fill="#8b949e" font-weight="bold">Computer Scientist</text>
  <text x="26" y="62" font-family="'Courier New', monospace" font-size="13" fill="#e6edf3">Junior Developer</text>
  <text x="26" y="82" font-family="'Courier New', monospace" font-size="13" fill="#e6edf3">Web &amp; Mobile Developer</text>
  <text x="26" y="102" font-family="'Courier New', monospace" font-size="13" fill="#e6edf3">Linux &amp; C Enthusiast</text>
  <text x="26" y="122" font-family="'Courier New', monospace" font-size="13" fill="#e6edf3">Aspiring DevOps Engineer</text>

  <!-- Separator -->
  <line x1="26" y1="140" x2="274" y2="140" stroke="#30363d" stroke-width="0.8"/>

  <!-- Quote -->
  <text x="26" y="162" font-family="'Courier New', monospace" font-size="11" fill="#484f58" font-style="italic">"Code. Learn. Repeat."</text>

  <!-- ── MIDDLE PANEL (tech stack) ── -->

  <!-- Section: Systèmes & Prog -->
  <text x="322" y="38" font-family="'Courier New', monospace" font-size="11" fill="#8b949e" font-weight="bold" letter-spacing="1">SYSTÈMES &amp; PROGRAMMATION</text>

  <rect x="322" y="46" width="36" height="18" rx="3" fill="#21262d" stroke="#30363d" stroke-width="0.8"/>
  <text x="340" y="58" font-family="'Courier New', monospace" font-size="10" fill="#e6edf3" text-anchor="middle">C</text>

  <rect x="364" y="46" width="46" height="18" rx="3" fill="#21262d" stroke="#30363d" stroke-width="0.8"/>
  <text x="387" y="58" font-family="'Courier New', monospace" font-size="10" fill="#e6edf3" text-anchor="middle">Java</text>

  <rect x="416" y="46" width="48" height="18" rx="3" fill="#21262d" stroke="#30363d" stroke-width="0.8"/>
  <text x="440" y="58" font-family="'Courier New', monospace" font-size="10" fill="#e6edf3" text-anchor="middle">Linux</text>

  <rect x="470" y="46" width="36" height="18" rx="3" fill="#21262d" stroke="#30363d" stroke-width="0.8"/>
  <text x="488" y="58" font-family="'Courier New', monospace" font-size="10" fill="#e6edf3" text-anchor="middle">Git</text>

  <!-- Section: Web -->
  <text x="322" y="88" font-family="'Courier New', monospace" font-size="11" fill="#8b949e" font-weight="bold" letter-spacing="1">DÉVELOPPEMENT WEB</text>

  <rect x="322" y="96" width="52" height="18" rx="3" fill="#21262d" stroke="#30363d" stroke-width="0.8"/>
  <text x="348" y="108" font-family="'Courier New', monospace" font-size="10" fill="#e6edf3" text-anchor="middle">React</text>

  <rect x="380" y="96" width="58" height="18" rx="3" fill="#21262d" stroke="#30363d" stroke-width="0.8"/>
  <text x="409" y="108" font-family="'Courier New', monospace" font-size="10" fill="#e6edf3" text-anchor="middle">Django</text>

  <rect x="444" y="96" width="58" height="18" rx="3" fill="#21262d" stroke="#30363d" stroke-width="0.8"/>
  <text x="473" y="108" font-family="'Courier New', monospace" font-size="10" fill="#e6edf3" text-anchor="middle">Laravel</text>

  <rect x="508" y="96" width="34" height="18" rx="3" fill="#21262d" stroke="#30363d" stroke-width="0.8"/>
  <text x="525" y="108" font-family="'Courier New', monospace" font-size="10" fill="#e6edf3" text-anchor="middle">JS</text>

  <rect x="548" y="96" width="54" height="18" rx="3" fill="#21262d" stroke="#30363d" stroke-width="0.8"/>
  <text x="575" y="108" font-family="'Courier New', monospace" font-size="10" fill="#e6edf3" text-anchor="middle">Python</text>

  <rect x="608" y="96" width="36" height="18" rx="3" fill="#21262d" stroke="#30363d" stroke-width="0.8"/>
  <text x="626" y="108" font-family="'Courier New', monospace" font-size="10" fill="#e6edf3" text-anchor="middle">PHP</text>

  <!-- Section: Mobile -->
  <text x="322" y="138" font-family="'Courier New', monospace" font-size="11" fill="#8b949e" font-weight="bold" letter-spacing="1">DÉVELOPPEMENT MOBILE</text>

  <rect x="322" y="146" width="58" height="18" rx="3" fill="#21262d" stroke="#30363d" stroke-width="0.8"/>
  <text x="351" y="158" font-family="'Courier New', monospace" font-size="10" fill="#e6edf3" text-anchor="middle">Flutter</text>

  <rect x="386" y="146" width="42" height="18" rx="3" fill="#21262d" stroke="#30363d" stroke-width="0.8"/>
  <text x="407" y="158" font-family="'Courier New', monospace" font-size="10" fill="#e6edf3" text-anchor="middle">Dart</text>

  <!-- ── RIGHT PANEL (2YLIT logo) ── -->
  <line x1="700" y1="20" x2="700" y2="180" stroke="#30363d" stroke-width="0.8" opacity="0.8"/>

  <g transform="translate(720, 20) scale(0.427)">
    <g clip-path="url(#f7be6ad1c4)">
      <path stroke-linecap="butt" transform="matrix(0.75, 0, 0, 0.75, 57.075001, 24.250029)" fill="none" stroke-linejoin="miter" d="M -0.00104267 -0.0000386234 L 349.99898 -0.0000386234 L 349.99898 349.999984 L -0.00104267 349.999984 Z M -0.00104267 -0.0000386234 " stroke="#e6edf3" stroke-width="30" stroke-opacity="1" stroke-miterlimit="4"/>
    </g>
    <g fill="#e6edf3" fill-opacity="1">
      <g transform="translate(104.422638, 142.75002)">
        <path d="M 40.796875 -70 C 44.535156 -70 48.035156 -69.863281 51.296875 -69.59375 C 54.566406 -69.332031 57.582031 -68.5 60.34375 -67.09375 C 63.113281 -65.695312 65.566406 -63.300781 67.703125 -59.90625 C 69.703125 -56.90625 70.929688 -53.453125 71.390625 -49.546875 C 71.859375 -45.648438 71.507812 -41.832031 70.34375 -38.09375 C 69.175781 -34.363281 67.0625 -31.195312 64 -28.59375 L 38.90625 -28.59375 L 38.90625 -28.796875 C 40.96875 -29.734375 42.316406 -31.015625 42.953125 -32.640625 C 43.585938 -34.273438 43.65625 -35.925781 43.15625 -37.59375 C 42.65625 -39.257812 41.785156 -40.675781 40.546875 -41.84375 C 39.316406 -43.007812 37.832031 -43.59375 36.09375 -43.59375 L 1.09375 -43.59375 L 1.09375 -70 Z M 32.296875 -41.90625 C 30.160156 -41.101562 28.757812 -39.816406 28.09375 -38.046875 C 27.425781 -36.285156 27.226562 -34.601562 27.5 -33 C 27.832031 -31.394531 28.613281 -29.992188 29.84375 -28.796875 C 31.082031 -27.597656 33.203125 -27 36.203125 -27 L 71.09375 -27 L 71.09375 0 L 0.90625 0 L 0.90625 -5.203125 L 18.703125 -41.90625 Z M 32.296875 -41.90625 "/>
      </g>
    </g>
    <g fill="#e6edf3" fill-opacity="1">
      <g transform="translate(189.119806, 142.75002)">
        <path d="M 46.203125 -42.203125 L 47.703125 -42.203125 L 42.40625 -51.5 L 53 -70 L 83.40625 -70 L 54.5 -22.5 L 54.5 0 L 28.5 0 L 28.5 -22.296875 L -0.5 -70 L 30 -70 Z M 46.203125 -42.203125 "/>
      </g>
    </g>
    <g fill="#e6edf3" fill-opacity="1">
      <g transform="translate(105.477325, 237.250014)">
        <path d="M 1.09375 -70 L 27.09375 -70 L 27.09375 -25.296875 L 52.703125 -25.296875 L 52.703125 0 L 1.09375 0 Z M 1.09375 -70 "/>
      </g>
    </g>
    <g fill="#e6edf3" fill-opacity="1">
      <g transform="translate(171.575214, 237.250014)">
        <path d="M 1 0 L 1 -70 L 27 -70 L 27 0 Z M 1 0 "/>
      </g>
    </g>
    <g fill="#e6edf3" fill-opacity="1">
      <g transform="translate(212.07409, 237.250014)">
        <path d="M 16.59375 -45 L 1 -45 L 1 -70 L 58.09375 -70 L 58.09375 -45 L 42.5 -45 L 42.5 0 L 16.59375 0 Z M 16.59375 -45 "/>
      </g>
    </g>
  </g>

  <defs>
    <clipPath id="f7be6ad1c4">
      <path d="M 57.074219 24.25 L 319.574219 24.25 L 319.574219 286.75 L 57.074219 286.75 Z M 57.074219 24.25 " clip-rule="nonzero"/>
    </clipPath>
  </defs>

</svg>
